HIERARCHY
ROOT Hips
{
	OFFSET 0.000000 97.167313 0.000000
	CHANNELS 6 Xposition Yposition Zposition Xrotation Yrotation Zrotation
	JOINT Spine
	{
		OFFSET 0.000000 13.784798 0.064400
		CHANNELS 3 Xrotation Yrotation Zrotation
		JOINT Spine1
		{
			OFFSET 0.000000 12.037903 0.404700
			CHANNELS 3 Xrotation Yrotation Zrotation
			JOINT Spine2
			{
				OFFSET 0.000000 17.795601 0.420200
				CHANNELS 3 Xrotation Yrotation Zrotation
				JOINT Neck
				{
					OFFSET 0.000000 39.131302 11.954600
					CHANNELS 3 Xrotation Yrotation Zrotation
					JOINT Head
					{
						OFFSET 0.000000 14.456192 15.627699
						CHANNELS 3 Xrotation Yrotation Zrotation
						JOINT HeadTop_End
						{
							OFFSET 0.000000 15.703506 7.603401
							CHANNELS 3 Xrotation Yrotation Zrotation
							End Site
							{
								OFFSET 0.000000 17.447403 0.000000
							}
						}
					}
				}
				JOINT LeftShoulder
				{
					OFFSET 17.399500 24.608795 1.168800
					CHANNELS 3 Xrotation Yrotation Zrotation
					JOINT LeftArm
					{
						OFFSET 18.980635 5.765305 1.818600
						CHANNELS 3 Xrotation Yrotation Zrotation
						JOINT LeftForeArm
						{
							OFFSET 49.290169 0.000000 0.000000
							CHANNELS 3 Xrotation Yrotation Zrotation
							JOINT LeftHand
							{
								OFFSET 31.562012 0.000000 0.000000
								CHANNELS 3 Xrotation Yrotation Zrotation
								JOINT LeftHandThumb1
								{
									OFFSET 6.133995 -4.388519 7.076070
									CHANNELS 3 Xrotation Yrotation Zrotation
									JOINT LeftHandThumb2
									{
										OFFSET 6.037666 -3.485840 3.485847
										CHANNELS 3 Xrotation Yrotation Zrotation
										JOINT LeftHandThumb3
										{
											OFFSET 6.496506 -3.750763 3.750761
											CHANNELS 3 Xrotation Yrotation Zrotation
											JOINT LeftHandThumb4
											{
												OFFSET 5.616882 -3.242905 3.242910
												CHANNELS 3 Xrotation Yrotation Zrotation
												End Site
												{
													OFFSET -1.254608 7.132141 0.375429
												}
											}
										}
									}
								}
								JOINT LeftHandPinky1
								{
									OFFSET 18.920792 -0.453171 -11.426712
									CHANNELS 3 Xrotation Yrotation Zrotation
									JOINT LeftHandPinky2
									{
										OFFSET 4.919586 0.000000 0.000000
										CHANNELS 3 Xrotation Yrotation Zrotation
										JOINT LeftHandPinky3
										{
											OFFSET 5.233047 0.000000 0.000000
											CHANNELS 3 Xrotation Yrotation Zrotation
											JOINT LeftHandPinky4
											{
												OFFSET 5.571716 0.000000 0.000000
												CHANNELS 3 Xrotation Yrotation Zrotation
												End Site
												{
													OFFSET -3.459808 4.342407 -0.466164
												}
											}
										}
									}
								}
								JOINT LeftHandRing1
								{
									OFFSET 22.726120 -0.094986 -6.500475
									CHANNELS 3 Xrotation Yrotation Zrotation
									JOINT LeftHandRing2
									{
										OFFSET 6.408615 0.000000 0.000000
										CHANNELS 3 Xrotation Yrotation Zrotation
										JOINT LeftHandRing3
										{
											OFFSET 6.150223 0.000000 0.000000
											CHANNELS 3 Xrotation Yrotation Zrotation
											JOINT LeftHandRing4
											{
												OFFSET 6.145386 0.000000 0.000000
												CHANNELS 3 Xrotation Yrotation Zrotation
												End Site
												{
													OFFSET -3.671402 4.923981 -0.202372
												}
											}
										}
									}
								}
								JOINT LeftHandMiddle1
								{
									OFFSET 23.373947 0.000000 0.000001
									CHANNELS 3 Xrotation Yrotation Zrotation
									JOINT LeftHandMiddle2
									{
										OFFSET 6.996567 0.000000 0.000000
										CHANNELS 3 Xrotation Yrotation Zrotation
										JOINT LeftHandMiddle3
										{
											OFFSET 7.015945 0.000000 0.000000
											CHANNELS 3 Xrotation Yrotation Zrotation
											JOINT LeftHandMiddle4
											{
												OFFSET 7.721573 0.000000 0.000000
												CHANNELS 3 Xrotation Yrotation Zrotation
												End Site
												{
													OFFSET -4.651108 6.158463 0.251582
												}
											}
										}
									}
								}
								JOINT LeftHandIndex1
								{
									OFFSET 21.310577 -0.490082 6.209344
									CHANNELS 3 Xrotation Yrotation Zrotation
									JOINT LeftHandIndex2
									{
										OFFSET 7.536453 0.000000 0.000000
										CHANNELS 3 Xrotation Yrotation Zrotation
										JOINT LeftHandIndex3
										{
											OFFSET 7.512344 0.000000 0.000000
											CHANNELS 3 Xrotation Yrotation Zrotation
											JOINT LeftHandIndex4
											{
												OFFSET 10.212402 0.000000 0.000001
												CHANNELS 3 Xrotation Yrotation Zrotation
												End Site
												{
													OFFSET -5.180801 8.690506 1.388433
												}
											}
										}
									}
								}
							}
						}
					}
				}
				JOINT RightShoulder
				{
					OFFSET -17.399500 24.608795 1.168800
					CHANNELS 3 Xrotation Yrotation Zrotation
					JOINT RightArm
					{
						OFFSET -18.980635 5.765305 1.818600
						CHANNELS 3 Xrotation Yrotation Zrotation
						JOINT RightForeArm
						{
							OFFSET -49.290169 0.000000 0.000000
							CHANNELS 3 Xrotation Yrotation Zrotation
							JOINT RightHand
							{
								OFFSET -31.562012 0.000000 0.000000
								CHANNELS 3 Xrotation Yrotation Zrotation
								JOINT RightHandThumb1
								{
									OFFSET -6.133995 -4.388519 7.076070
									CHANNELS 3 Xrotation Yrotation Zrotation
									JOINT RightHandThumb2
									{
										OFFSET -6.037666 -3.485840 3.485847
										CHANNELS 3 Xrotation Yrotation Zrotation
										JOINT RightHandThumb3
										{
											OFFSET -6.496506 -3.750763 3.750761
											CHANNELS 3 Xrotation Yrotation Zrotation
											JOINT RightHandThumb4
											{
												OFFSET -5.616882 -3.242905 3.242910
												CHANNELS 3 Xrotation Yrotation Zrotation
												End Site
												{
													OFFSET 1.254608 7.132141 0.375429
												}
											}
										}
									}
								}
								JOINT RightHandIndex1
								{
									OFFSET -21.310577 -0.490082 6.209344
									CHANNELS 3 Xrotation Yrotation Zrotation
									JOINT RightHandIndex2
									{
										OFFSET -7.536453 0.000000 0.000000
										CHANNELS 3 Xrotation Yrotation Zrotation
										JOINT RightHandIndex3
										{
											OFFSET -7.512344 0.000000 0.000000
											CHANNELS 3 Xrotation Yrotation Zrotation
											JOINT RightHandIndex4
											{
												OFFSET -10.212402 0.000000 0.000001
												CHANNELS 3 Xrotation Yrotation Zrotation
												End Site
												{
													OFFSET 5.180801 8.690506 1.388433
												}
											}
										}
									}
								}
								JOINT RightHandMiddle1
								{
									OFFSET -23.373947 0.000000 0.000001
									CHANNELS 3 Xrotation Yrotation Zrotation
									JOINT RightHandMiddle2
									{
										OFFSET -6.996567 0.000000 0.000000
										CHANNELS 3 Xrotation Yrotation Zrotation
										JOINT RightHandMiddle3
										{
											OFFSET -7.015945 0.000000 0.000000
											CHANNELS 3 Xrotation Yrotation Zrotation
											JOINT RightHandMiddle4
											{
												OFFSET -7.721573 0.000000 0.000000
												CHANNELS 3 Xrotation Yrotation Zrotation
												End Site
												{
													OFFSET 4.651108 6.158463 0.251582
												}
											}
										}
									}
								}
								JOINT RightHandRing1
								{
									OFFSET -22.726120 -0.094986 -6.500475
									CHANNELS 3 Xrotation Yrotation Zrotation
									JOINT RightHandRing2
									{
										OFFSET -6.408615 0.000000 0.000000
										CHANNELS 3 Xrotation Yrotation Zrotation
										JOINT RightHandRing3
										{
											OFFSET -6.150223 0.000000 0.000000
											CHANNELS 3 Xrotation Yrotation Zrotation
											JOINT RightHandRing4
											{
												OFFSET -6.145386 0.000000 0.000000
												CHANNELS 3 Xrotation Yrotation Zrotation
												End Site
												{
													OFFSET 3.671402 4.923981 -0.202372
												}
											}
										}
									}
								}
								JOINT RightHandPinky1
								{
									OFFSET -18.920792 -0.453171 -11.426712
									CHANNELS 3 Xrotation Yrotation Zrotation
									JOINT RightHandPinky2
									{
										OFFSET -4.919586 0.000000 0.000000
										CHANNELS 3 Xrotation Yrotation Zrotation
										JOINT RightHandPinky3
										{
											OFFSET -5.233047 0.000000 0.000000
											CHANNELS 3 Xrotation Yrotation Zrotation
											JOINT RightHandPinky4
											{
												OFFSET -5.571716 0.000000 0.000000
												CHANNELS 3 Xrotation Yrotation Zrotation
												End Site
												{
													OFFSET 3.459808 4.342407 -0.466164
												}
											}
										}
									}
								}
							}
						}
					}
				}
			}
		}
	}
	JOINT LeftUpLeg
	{
		OFFSET 19.899099 -7.885101 -3.429500
		CHANNELS 3 Xrotation Yrotation Zrotation
		JOINT LeftLeg
		{
			OFFSET 1.745560 -36.997807 10.304700
			CHANNELS 3 Xrotation Yrotation Zrotation
			JOINT LeftFoot
			{
				OFFSET -1.745558 -29.803308 -13.615400
				CHANNELS 3 Xrotation Yrotation Zrotation
				JOINT LeftToeBase
				{
					OFFSET 1.181900 -18.539904 15.226099
					CHANNELS 3 Xrotation Yrotation Zrotation
					JOINT LeftToe_End
					{
						OFFSET -0.863701 1.402801 16.534700
						CHANNELS 3 Xrotation Yrotation Zrotation
						End Site
						{
							OFFSET 0.000000 16.616566 0.000000
						}
					}
				}
			}
		}
	}
	JOINT RightUpLeg
	{
		OFFSET -19.899099 -7.885101 -3.429500
		CHANNELS 3 Xrotation Yrotation Zrotation
		JOINT RightLeg
		{
			OFFSET -1.745560 -36.997807 10.304700
			CHANNELS 3 Xrotation Yrotation Zrotation
			JOINT RightFoot
			{
				OFFSET 1.745558 -29.803308 -13.615400
				CHANNELS 3 Xrotation Yrotation Zrotation
				JOINT RightToeBase
				{
					OFFSET -1.181900 -18.539904 15.226099
					CHANNELS 3 Xrotation Yrotation Zrotation
					JOINT RightToe_End
					{
						OFFSET 0.863701 1.402801 16.534700
						CHANNELS 3 Xrotation Yrotation Zrotation
						End Site
						{
							OFFSET 0.000000 16.616566 0.000000
						}
					}
				}
			}
		}
	}
}
MOTION
Frames: 5
Frame Time: 0.033333
-1.396460 78.205307 3.376028 -13.912303 -48.330306 -11.793315 18.669491 0.132533 3.072247 13.356297 -1.802428 0.150848 13.368868 -1.616007 0.447465 -3.650381 10.369152 -0.110977 -8.075707 35.585750 -6.426411 0.000000 0.000001 -0.000000 12.926356 -25.883174 4.072874 -61.409022 22.993053 -35.716780 -79.038758 11.318099 -113.378804 -42.457446 -16.701290 12.368106 0.699132 9.503399 -2.418103 5.975212 12.647532 1.348326 -23.873567 -17.664268 1.604908 0.000002 0.000001 -0.000001 -7.938264 1.609076 -6.495686 2.210553 4.583602 -51.475198 0.883837 3.096059 -31.858140 0.000001 -0.000002 -0.000004 1.254215 -0.073783 -17.945789 3.754102 5.463585 -68.965287 5.298525 9.638320 -33.747131 -0.000001 0.000002 -0.000000 10.058173 -1.800615 -20.644704 1.774239 4.200536 -45.782078 1.632211 4.057796 -43.809318 -0.000001 -0.000001 0.000003 9.479715 -1.289831 -20.785545 0.709473 2.796377 -28.467136 0.714013 2.804771 -28.559770 0.000001 0.000001 0.000001 6.965784 18.337449 -1.217156 -25.671464 42.866879 51.102123 43.325273 129.302789 -48.359952 3.872255 -6.857962 -0.171967 13.942557 -4.273669 -5.300325 7.113259 -20.767460 -2.619418 -3.463340 -24.899755 -18.660446 -0.000002 -0.000002 -0.000002 0.357842 -5.832688 5.175901 0.094353 -0.933597 11.539776 0.777663 -2.578472 33.559933 -0.000002 -0.000003 -0.000002 3.764110 -12.080556 1.143783 5.714314 -4.535781 103.133404 3.160524 -4.410602 71.234912 0.000000 0.000000 -0.000008 -12.155589 -12.623870 9.228376 6.566870 -4.248307 114.232271 3.755121 -4.569164 78.819686 0.000001 -0.000000 -0.000003 -17.635840 -10.496789 3.325412 4.993666 -4.645016 94.147929 3.647269 -4.546602 77.463341 -0.000000 0.000002 0.000004 -27.677211 -2.503895 9.652317 69.818679 -1.840655 -4.817658 7.904758 -3.003416 5.321237 -36.989538 -1.584393 -4.857150 -0.000000 -0.000002 -0.000000 -17.957979 -4.346707 -6.208780 56.746171 -6.683593 1.314035 -26.915902 -7.234984 7.349324 -0.827611 -3.632880 -0.236727 0.000000 0.000000 -0.000000 
4.386817 76.759995 -1.428838 -13.725301 -46.111270 -11.538852 18.051054 -0.236383 4.553894 13.525739 -2.379554 0.059449 13.539184 -2.227196 0.347734 -3.474258 10.318304 -0.261093 -7.962752 35.132936 -6.313792 0.000000 -0.000000 0.000001 13.177014 -26.506111 4.306795 -60.911183 23.292979 -36.083715 -79.032522 11.199646 -113.612766 -42.501091 -16.596091 12.420956 0.699131 9.503395 -2.418102 5.975213 12.647533 1.348329 -23.873565 -17.664268 1.604908 0.000004 -0.000002 -0.000003 -7.938265 1.609079 -6.495686 2.210551 4.583597 -51.475191 0.883836 3.096063 -31.858140 0.000005 -0.000003 0.000001 1.254211 -0.073781 -17.945788 3.754101 5.463579 -68.965294 5.298526 9.638322 -33.747135 -0.000000 0.000005 0.000002 10.058170 -1.800619 -20.644708 1.774237 4.200533 -45.782075 1.632209 4.057797 -43.809318 0.000001 -0.000001 0.000004 9.479711 -1.289825 -20.785546 0.709476 2.796374 -28.467136 0.714006 2.804771 -28.559772 0.000001 0.000003 0.000002 6.644716 17.556487 -1.060936 -24.238514 43.117352 50.440664 42.702964 129.703872 -47.550848 3.789223 -6.897715 -1.065200 13.942561 -4.273669 -5.300323 7.113253 -20.767460 -2.619419 -3.463335 -24.899765 -18.660446 -0.000001 0.000003 0.000001 0.357840 -5.832691 5.175901 0.094353 -0.933597 11.539775 0.777660 -2.578471 33.559933 -0.000002 -0.000001 -0.000001 3.764110 -12.080556 1.143783 5.714315 -4.535781 103.133404 3.160525 -4.410602 71.234905 0.000001 0.000001 -0.000001 -12.155592 -12.623872 9.228376 6.566866 -4.248306 114.232277 3.755121 -4.569162 78.819693 -0.000001 0.000000 -0.000005 -17.635840 -10.496787 3.325411 4.993668 -4.645015 94.147935 3.647268 -4.546599 77.463341 -0.000000 -0.000000 0.000002 -19.102738 -4.436538 7.159909 71.338259 -0.578628 -3.883841 8.344616 -4.255922 1.810367 -49.170832 -2.108867 -1.409810 -0.000000 -0.000000 -0.000000 -26.867336 -6.554498 -7.480288 58.730140 -6.726468 0.948247 -20.299870 -6.379494 5.694982 -0.822514 -3.631499 -0.222399 -0.000000 0.000002 -0.000000 
10.077267 75.428497 -6.201071 -13.543142 -44.141962 -11.317687 17.552244 -0.697797 6.269103 13.676106 -2.856984 -0.247527 13.682391 -2.816351 0.091971 -3.325598 10.269818 -0.401180 -7.996128 34.663196 -6.243068 -0.000000 -0.000000 0.000001 13.368520 -27.076292 4.513657 -60.484727 23.637215 -36.397494 -79.014408 11.115550 -113.843913 -42.543698 -16.413358 12.410285 0.699131 9.503392 -2.418103 5.975215 12.647535 1.348326 -23.873567 -17.664268 1.604906 0.000002 0.000001 -0.000002 -7.938264 1.609076 -6.495685 2.210551 4.583595 -51.475198 0.883835 3.096062 -31.858140 0.000001 -0.000001 -0.000002 1.254211 -0.073780 -17.945788 3.754107 5.463578 -68.965294 5.298526 9.638320 -33.747135 -0.000001 -0.000001 0.000005 10.058172 -1.800618 -20.644704 1.774238 4.200539 -45.782075 1.632209 4.057797 -43.809315 0.000001 0.000000 0.000008 9.479712 -1.289831 -20.785541 0.709473 2.796373 -28.467131 0.714007 2.804766 -28.559772 -0.000001 0.000001 0.000001 6.331689 16.787372 -0.916885 -22.969008 43.459578 49.866624 42.192575 130.043373 -46.888767 3.827380 -6.885564 -1.845547 13.942557 -4.273669 -5.300322 7.113251 -20.767463 -2.619421 -3.463335 -24.899765 -18.660444 0.000001 0.000001 0.000003 0.357841 -5.832688 5.175902 0.094353 -0.933597 11.539780 0.777663 -2.578469 33.559933 -0.000000 -0.000003 0.000001 3.764109 -12.080556 1.143785 5.714315 -4.535780 103.133398 3.160524 -4.410601 71.234912 -0.000001 -0.000000 -0.000004 -12.155589 -12.623873 9.228376 6.566869 -4.248304 114.232271 3.755122 -4.569163 78.819693 0.000001 -0.000001 -0.000003 -17.635842 -10.496790 3.325414 4.993670 -4.645014 94.147935 3.647268 -4.546602 77.463347 -0.000000 0.000001 0.000004 -10.151173 -5.749366 5.117941 71.032697 -0.240086 -2.900405 6.610038 -7.043043 -2.291160 -55.710134 -5.608860 4.339612 -0.000000 -0.000001 0.000000 -34.913817 -7.643491 -8.903592 58.407161 -8.273229 0.448725 -12.196867 -4.836413 4.527662 -0.797550 -3.628943 -0.151103 -0.000000 0.000000 0.000000 
15.514591 74.376419 -10.969448 -13.383215 -42.460892 -11.072823 17.205105 -1.252200 7.931895 13.807852 -3.362220 -0.608937 13.800415 -3.470361 -0.216815 -3.220926 10.223817 -0.520614 -8.061945 34.502861 -6.293904 0.000001 0.000001 0.000000 13.490159 -27.571180 4.681601 -60.041720 24.219342 -36.582268 -78.929072 11.030307 -114.363274 -42.519215 -16.429479 12.322457 0.699132 9.503398 -2.418103 5.975212 12.647532 1.348328 -23.873565 -17.664271 1.604907 0.000002 0.000001 0.000000 -7.938264 1.609074 -6.495683 2.210555 4.583597 -51.475195 0.883837 3.096059 -31.858140 0.000003 -0.000000 -0.000000 1.254215 -0.073777 -17.945788 3.754108 5.463582 -68.965294 5.298528 9.638318 -33.747131 0.000002 0.000000 0.000002 10.058176 -1.800617 -20.644704 1.774238 4.200538 -45.782075 1.632208 4.057799 -43.809315 0.000001 -0.000000 0.000006 9.479713 -1.289827 -20.785543 0.709474 2.796373 -28.467134 0.714015 2.804768 -28.559768 -0.000002 0.000003 0.000002 6.041051 16.110545 -0.795781 -21.934546 43.797949 49.402031 41.847142 130.331894 -46.419338 3.883095 -6.797278 -2.207784 13.942560 -4.273666 -5.300323 7.113251 -20.767463 -2.619417 -3.463338 -24.899757 -18.660442 -0.000001 0.000001 0.000003 0.357841 -5.832686 5.175903 0.094354 -0.933599 11.539778 0.777661 -2.578470 33.559933 -0.000000 -0.000003 -0.000001 3.764110 -12.080556 1.143789 5.714314 -4.535780 103.133404 3.160524 -4.410603 71.234912 0.000003 0.000000 -0.000008 -12.155591 -12.623872 9.228374 6.566869 -4.248306 114.232271 3.755123 -4.569163 78.819693 -0.000000 -0.000000 -0.000005 -17.635844 -10.496785 3.325413 4.993668 -4.645018 94.147929 3.647270 -4.546599 77.463347 0.000002 0.000000 0.000004 -0.425466 -6.261340 3.298997 68.551638 -0.310348 -1.684786 3.219687 -10.081720 -4.611655 -57.349827 -10.475250 10.388131 -0.000000 0.000002 -0.000000 -41.502453 -7.949730 -9.490814 55.359462 -8.384866 0.013280 -3.001418 -5.661431 2.397742 -0.758903 -3.626099 -0.041251 -0.000000 0.000002 -0.000000 
20.573668 73.953789 -15.547998 -13.266641 -41.123483 -10.731161 17.054950 -1.889449 9.206459 13.912289 -3.835345 -0.889442 13.890580 -4.028466 -0.462906 -3.167217 10.180713 -0.607966 -8.085704 34.567171 -6.475581 0.000000 -0.000000 -0.000000 13.531713 -27.966375 4.798425 -59.593319 24.889221 -36.714446 -78.802126 10.995608 -114.965703 -42.445094 -16.564728 12.075411 0.699131 9.503398 -2.418102 5.975212 12.647536 1.348329 -23.873560 -17.664268 1.604905 -0.000001 -0.000001 -0.000003 -7.938269 1.609079 -6.495680 2.210553 4.583602 -51.475195 0.883838 3.096059 -31.858140 0.000001 -0.000006 0.000001 1.254212 -0.073780 -17.945791 3.754108 5.463582 -68.965287 5.298525 9.638320 -33.747131 -0.000004 0.000001 0.000002 10.058172 -1.800614 -20.644706 1.774241 4.200537 -45.782078 1.632212 4.057797 -43.809315 -0.000003 0.000000 0.000009 9.479712 -1.289829 -20.785545 0.709476 2.796376 -28.467132 0.714010 2.804771 -28.559767 -0.000002 -0.000000 0.000001 5.788168 15.574066 -0.702395 -21.233856 44.060973 49.093870 41.636273 130.498906 -46.129861 3.935188 -6.719689 -2.157247 13.942560 -4.273666 -5.300322 7.113254 -20.767458 -2.619416 -3.463336 -24.899757 -18.660451 -0.000002 0.000004 0.000006 0.357840 -5.832693 5.175899 0.094353 -0.933598 11.539779 0.777661 -2.578471 33.559930 -0.000001 -0.000001 -0.000002 3.764110 -12.080556 1.143785 5.714316 -4.535780 103.133398 3.160524 -4.410602 71.234912 -0.000000 -0.000000 -0.000007 -12.155590 -12.623873 9.228380 6.566870 -4.248305 114.232271 3.755122 -4.569163 78.819693 0.000000 0.000001 -0.000003 -17.635839 -10.496785 3.325415 4.993671 -4.645017 94.147935 3.647270 -4.546599 77.463347 0.000004 -0.000000 0.000006 10.108707 -6.217487 2.093343 63.153398 0.040986 -0.373290 -2.675315 -11.509413 -5.560987 -55.723992 -12.464790 13.421456 -0.000000 -0.000003 0.000000 -45.711686 -8.005519 -10.168235 49.617339 -9.498878 -0.362083 6.491733 -5.395982 0.535152 -0.757825 -3.622423 -0.161431 -0.000000 0.000000 0.000000 
